<mxfile host="65bd71144e">
    <diagram id="PH3x6NAS6UUTNjEZrtSC" name="Page-1">
        <mxGraphModel dx="3458" dy="-556" grid="1" gridSize="10" guides="1" tooltips="1" connect="1" arrows="1" fold="1" page="1" pageScale="1" pageWidth="827" pageHeight="1169" math="0" shadow="0">
            <root>
                <mxCell id="0"/>
                <mxCell id="1" parent="0"/>
                <mxCell id="2" style="edgeStyle=none;html=1;exitX=0.5;exitY=1;exitDx=0;exitDy=0;entryX=0.5;entryY=0;entryDx=0;entryDy=0;strokeColor=#000000;fontSize=12;fontColor=#000000;startArrow=none;startFill=0;fontStyle=0" edge="1" parent="1" source="7" target="11">
                    <mxGeometry relative="1" as="geometry"/>
                </mxCell>
                <mxCell id="5" style="edgeStyle=none;html=1;exitX=0.5;exitY=1;exitDx=0;exitDy=0;entryX=0.5;entryY=0;entryDx=0;entryDy=0;strokeColor=#000000;fontSize=12;fontColor=#000000;startArrow=none;startFill=0;fontStyle=0" edge="1" parent="1" source="7" target="12">
                    <mxGeometry relative="1" as="geometry">
                        <Array as="points">
                            <mxPoint x="-1720" y="1380"/>
                            <mxPoint x="-1520" y="1380"/>
                        </Array>
                    </mxGeometry>
                </mxCell>
                <mxCell id="6" style="edgeStyle=none;html=1;exitX=0.5;exitY=1;exitDx=0;exitDy=0;entryX=0.5;entryY=0;entryDx=0;entryDy=0;strokeColor=#000000;fontSize=12;fontColor=#000000;startArrow=none;startFill=0;fontStyle=0" edge="1" parent="1" source="7" target="13">
                    <mxGeometry relative="1" as="geometry">
                        <Array as="points">
                            <mxPoint x="-1720" y="1380"/>
                            <mxPoint x="-1320" y="1380"/>
                        </Array>
                    </mxGeometry>
                </mxCell>
                <mxCell id="53" style="edgeStyle=none;html=1;exitX=0.5;exitY=1;exitDx=0;exitDy=0;entryX=0.5;entryY=0;entryDx=0;entryDy=0;fontStyle=0;fontColor=#000000;" edge="1" parent="1" source="7" target="10">
                    <mxGeometry relative="1" as="geometry">
                        <Array as="points">
                            <mxPoint x="-1720" y="1380"/>
                            <mxPoint x="-1920" y="1380"/>
                        </Array>
                    </mxGeometry>
                </mxCell>
                <mxCell id="54" style="edgeStyle=none;html=1;exitX=0.5;exitY=1;exitDx=0;exitDy=0;entryX=0.5;entryY=0;entryDx=0;entryDy=0;fontStyle=0;fontColor=#000000;" edge="1" parent="1" source="7" target="9">
                    <mxGeometry relative="1" as="geometry">
                        <Array as="points">
                            <mxPoint x="-1720" y="1380"/>
                            <mxPoint x="-2120" y="1380"/>
                        </Array>
                    </mxGeometry>
                </mxCell>
                <mxCell id="7" value="&lt;b&gt;&lt;font style=&quot;color: rgb(0, 0, 0);&quot;&gt;Images Hub Application&lt;/font&gt;&lt;/b&gt;" style="rounded=0;whiteSpace=wrap;html=1;labelBackgroundColor=none;strokeColor=#000000;strokeWidth=1;fontColor=#000000;fillColor=#FFFFFF;" vertex="1" parent="1">
                    <mxGeometry x="-1800" y="1320" width="160" height="40" as="geometry"/>
                </mxCell>
                <mxCell id="46" style="edgeStyle=none;html=1;exitX=1;exitY=1;exitDx=0;exitDy=0;entryX=1;entryY=0.5;entryDx=0;entryDy=0;" edge="1" parent="1" source="9" target="14">
                    <mxGeometry relative="1" as="geometry">
                        <Array as="points">
                            <mxPoint x="-2040" y="1480"/>
                        </Array>
                    </mxGeometry>
                </mxCell>
                <mxCell id="47" style="edgeStyle=none;html=1;exitX=1;exitY=1;exitDx=0;exitDy=0;entryX=1;entryY=0.5;entryDx=0;entryDy=0;" edge="1" parent="1" source="9" target="42">
                    <mxGeometry relative="1" as="geometry">
                        <Array as="points">
                            <mxPoint x="-2040" y="1540"/>
                        </Array>
                    </mxGeometry>
                </mxCell>
                <mxCell id="48" style="edgeStyle=none;html=1;exitX=1;exitY=1;exitDx=0;exitDy=0;entryX=1;entryY=0.5;entryDx=0;entryDy=0;" edge="1" parent="1" source="9" target="15">
                    <mxGeometry relative="1" as="geometry">
                        <Array as="points">
                            <mxPoint x="-2040" y="1600"/>
                        </Array>
                    </mxGeometry>
                </mxCell>
                <mxCell id="9" value="&lt;span&gt;&lt;font style=&quot;color: rgb(0, 0, 0);&quot;&gt;Sign In&lt;/font&gt;&lt;/span&gt;" style="rounded=0;whiteSpace=wrap;html=1;labelBackgroundColor=none;strokeColor=#000000;strokeWidth=1;fontColor=#000000;fillColor=#FFFFFF;fontStyle=0" vertex="1" parent="1">
                    <mxGeometry x="-2200" y="1400" width="160" height="40" as="geometry"/>
                </mxCell>
                <mxCell id="50" style="edgeStyle=none;html=1;exitX=1;exitY=1;exitDx=0;exitDy=0;entryX=1;entryY=0.5;entryDx=0;entryDy=0;" edge="1" parent="1" source="10" target="20">
                    <mxGeometry relative="1" as="geometry">
                        <Array as="points">
                            <mxPoint x="-1840" y="1480"/>
                        </Array>
                    </mxGeometry>
                </mxCell>
                <mxCell id="51" style="edgeStyle=none;html=1;exitX=1;exitY=1;exitDx=0;exitDy=0;entryX=1;entryY=0.5;entryDx=0;entryDy=0;" edge="1" parent="1" source="10" target="49">
                    <mxGeometry relative="1" as="geometry">
                        <Array as="points">
                            <mxPoint x="-1840" y="1540"/>
                        </Array>
                    </mxGeometry>
                </mxCell>
                <mxCell id="52" style="edgeStyle=none;html=1;exitX=1;exitY=1;exitDx=0;exitDy=0;entryX=1;entryY=0.5;entryDx=0;entryDy=0;" edge="1" parent="1" source="10" target="16">
                    <mxGeometry relative="1" as="geometry">
                        <Array as="points">
                            <mxPoint x="-1840" y="1600"/>
                        </Array>
                    </mxGeometry>
                </mxCell>
                <mxCell id="55" style="edgeStyle=none;html=1;exitX=1;exitY=1;exitDx=0;exitDy=0;entryX=1;entryY=0.5;entryDx=0;entryDy=0;" edge="1" parent="1" source="10" target="17">
                    <mxGeometry relative="1" as="geometry">
                        <Array as="points">
                            <mxPoint x="-1840" y="1660"/>
                        </Array>
                    </mxGeometry>
                </mxCell>
                <mxCell id="10" value="&lt;span&gt;&lt;font style=&quot;color: rgb(0, 0, 0);&quot;&gt;Browse Images&lt;/font&gt;&lt;/span&gt;" style="rounded=0;whiteSpace=wrap;html=1;labelBackgroundColor=none;strokeColor=#000000;strokeWidth=1;fontColor=#000000;fillColor=#FFFFFF;fontStyle=0" vertex="1" parent="1">
                    <mxGeometry x="-2000" y="1400" width="160" height="40" as="geometry"/>
                </mxCell>
                <mxCell id="56" style="edgeStyle=none;html=1;exitX=1;exitY=1;exitDx=0;exitDy=0;entryX=1;entryY=0.5;entryDx=0;entryDy=0;" edge="1" parent="1" source="11" target="18">
                    <mxGeometry relative="1" as="geometry">
                        <Array as="points">
                            <mxPoint x="-1640" y="1480"/>
                        </Array>
                    </mxGeometry>
                </mxCell>
                <mxCell id="57" style="edgeStyle=none;html=1;exitX=1;exitY=1;exitDx=0;exitDy=0;entryX=1;entryY=0.5;entryDx=0;entryDy=0;" edge="1" parent="1" source="11" target="19">
                    <mxGeometry relative="1" as="geometry">
                        <Array as="points">
                            <mxPoint x="-1640" y="1540"/>
                        </Array>
                    </mxGeometry>
                </mxCell>
                <mxCell id="58" style="edgeStyle=none;html=1;exitX=1;exitY=1;exitDx=0;exitDy=0;entryX=1;entryY=0.5;entryDx=0;entryDy=0;" edge="1" parent="1" source="11" target="27">
                    <mxGeometry relative="1" as="geometry">
                        <Array as="points">
                            <mxPoint x="-1640" y="1600"/>
                        </Array>
                    </mxGeometry>
                </mxCell>
                <mxCell id="59" style="edgeStyle=none;html=1;exitX=1;exitY=1;exitDx=0;exitDy=0;entryX=1;entryY=0.5;entryDx=0;entryDy=0;" edge="1" parent="1" source="11" target="21">
                    <mxGeometry relative="1" as="geometry">
                        <Array as="points">
                            <mxPoint x="-1640" y="1660"/>
                        </Array>
                    </mxGeometry>
                </mxCell>
                <mxCell id="11" value="&lt;span&gt;&lt;font style=&quot;color: rgb(0, 0, 0);&quot;&gt;Image Details (Model)&lt;/font&gt;&lt;/span&gt;" style="rounded=0;whiteSpace=wrap;html=1;labelBackgroundColor=none;strokeColor=#000000;strokeWidth=1;fontColor=#000000;fillColor=#FFFFFF;fontStyle=0" vertex="1" parent="1">
                    <mxGeometry x="-1800" y="1400" width="160" height="40" as="geometry"/>
                </mxCell>
                <mxCell id="60" style="edgeStyle=none;html=1;exitX=1;exitY=1;exitDx=0;exitDy=0;entryX=1;entryY=0.5;entryDx=0;entryDy=0;" edge="1" parent="1" source="12" target="22">
                    <mxGeometry relative="1" as="geometry">
                        <Array as="points">
                            <mxPoint x="-1440" y="1480"/>
                        </Array>
                    </mxGeometry>
                </mxCell>
                <mxCell id="61" style="edgeStyle=none;html=1;exitX=1;exitY=1;exitDx=0;exitDy=0;entryX=1;entryY=0.5;entryDx=0;entryDy=0;" edge="1" parent="1" source="12" target="23">
                    <mxGeometry relative="1" as="geometry">
                        <Array as="points">
                            <mxPoint x="-1440" y="1540"/>
                        </Array>
                    </mxGeometry>
                </mxCell>
                <mxCell id="62" style="edgeStyle=none;html=1;exitX=1;exitY=1;exitDx=0;exitDy=0;entryX=1;entryY=0.5;entryDx=0;entryDy=0;" edge="1" parent="1" source="12" target="24">
                    <mxGeometry relative="1" as="geometry">
                        <Array as="points">
                            <mxPoint x="-1440" y="1600"/>
                        </Array>
                    </mxGeometry>
                </mxCell>
                <mxCell id="12" value="&lt;span&gt;&lt;font style=&quot;color: rgb(0, 0, 0);&quot;&gt;Browse Requests&lt;/font&gt;&lt;/span&gt;" style="rounded=0;whiteSpace=wrap;html=1;labelBackgroundColor=none;strokeColor=#000000;strokeWidth=1;fontColor=#000000;fillColor=#FFFFFF;fontStyle=0" vertex="1" parent="1">
                    <mxGeometry x="-1600" y="1400" width="160" height="40" as="geometry"/>
                </mxCell>
                <mxCell id="65" style="edgeStyle=none;html=1;exitX=1;exitY=1;exitDx=0;exitDy=0;entryX=1;entryY=0.5;entryDx=0;entryDy=0;" edge="1" parent="1" source="13" target="26">
                    <mxGeometry relative="1" as="geometry">
                        <Array as="points">
                            <mxPoint x="-1240" y="1480"/>
                        </Array>
                    </mxGeometry>
                </mxCell>
                <mxCell id="66" style="edgeStyle=none;html=1;exitX=1;exitY=1;exitDx=0;exitDy=0;entryX=1;entryY=0.5;entryDx=0;entryDy=0;" edge="1" parent="1" source="13" target="25">
                    <mxGeometry relative="1" as="geometry">
                        <Array as="points">
                            <mxPoint x="-1240" y="1540"/>
                        </Array>
                    </mxGeometry>
                </mxCell>
                <mxCell id="13" value="&lt;span&gt;&lt;font style=&quot;color: rgb(0, 0, 0);&quot;&gt;Request Details (Model)&lt;/font&gt;&lt;/span&gt;" style="rounded=0;whiteSpace=wrap;html=1;labelBackgroundColor=none;strokeColor=#000000;strokeWidth=1;fontColor=#000000;fillColor=#FFFFFF;fontStyle=0" vertex="1" parent="1">
                    <mxGeometry x="-1400" y="1400" width="160" height="40" as="geometry"/>
                </mxCell>
                <mxCell id="14" value="Prompt User Email Address" style="rounded=0;whiteSpace=wrap;html=1;labelBackgroundColor=none;strokeColor=#000000;strokeWidth=1;fontColor=#000000;fillColor=#FFFFFF;fontStyle=2" vertex="1" parent="1">
                    <mxGeometry x="-2200" y="1460" width="140" height="40" as="geometry"/>
                </mxCell>
                <mxCell id="15" value="Athenticate and Redirect Accordingly" style="rounded=0;whiteSpace=wrap;html=1;labelBackgroundColor=none;strokeColor=#000000;strokeWidth=1;fontColor=#000000;fillColor=#FFFFFF;fontStyle=2" vertex="1" parent="1">
                    <mxGeometry x="-2200" y="1580" width="140" height="40" as="geometry"/>
                </mxCell>
                <mxCell id="16" value="Allow User to Filter Images with Filenames" style="rounded=0;whiteSpace=wrap;html=1;labelBackgroundColor=none;strokeColor=#000000;strokeWidth=1;fontColor=#000000;fillColor=#FFFFFF;fontStyle=2" vertex="1" parent="1">
                    <mxGeometry x="-2000" y="1580" width="140" height="40" as="geometry"/>
                </mxCell>
                <mxCell id="17" value="Allow User to Sign out" style="rounded=0;whiteSpace=wrap;html=1;labelBackgroundColor=none;strokeColor=#000000;strokeWidth=1;fontColor=#000000;fillColor=#FFFFFF;fontStyle=2" vertex="1" parent="1">
                    <mxGeometry x="-2000" y="1640" width="140" height="40" as="geometry"/>
                </mxCell>
                <mxCell id="18" value="Diplay High Res Image if is Access is granted" style="rounded=0;whiteSpace=wrap;html=1;labelBackgroundColor=none;strokeColor=#000000;strokeWidth=1;fontColor=#000000;fillColor=#FFFFFF;fontStyle=2" vertex="1" parent="1">
                    <mxGeometry x="-1800" y="1460" width="140" height="40" as="geometry"/>
                </mxCell>
                <mxCell id="19" value="Else Prompt Guest to Submit a Request" style="rounded=0;whiteSpace=wrap;html=1;labelBackgroundColor=none;strokeColor=#000000;strokeWidth=1;fontColor=#000000;fillColor=#FFFFFF;fontStyle=2" vertex="1" parent="1">
                    <mxGeometry x="-1800" y="1520" width="140" height="40" as="geometry"/>
                </mxCell>
                <mxCell id="20" value="Display Grid of Low Res Images from DB" style="rounded=0;whiteSpace=wrap;html=1;labelBackgroundColor=none;strokeColor=#000000;strokeWidth=1;fontColor=#000000;fillColor=#FFFFFF;fontStyle=2" vertex="1" parent="1">
                    <mxGeometry x="-2000" y="1460" width="140" height="40" as="geometry"/>
                </mxCell>
                <mxCell id="21" value="Allow User to Close this Model" style="rounded=0;whiteSpace=wrap;html=1;labelBackgroundColor=none;strokeColor=#000000;strokeWidth=1;fontColor=#000000;fillColor=#FFFFFF;fontStyle=2" vertex="1" parent="1">
                    <mxGeometry x="-1800" y="1640" width="140" height="40" as="geometry"/>
                </mxCell>
                <mxCell id="22" value="Display Table of Requests from DB" style="rounded=0;whiteSpace=wrap;html=1;labelBackgroundColor=none;strokeColor=#000000;strokeWidth=1;fontColor=#000000;fillColor=#FFFFFF;fontStyle=2" vertex="1" parent="1">
                    <mxGeometry x="-1600" y="1460" width="140" height="40" as="geometry"/>
                </mxCell>
                <mxCell id="23" value="Allow Admin to Filter Requests with Email" style="rounded=0;whiteSpace=wrap;html=1;labelBackgroundColor=none;strokeColor=#000000;strokeWidth=1;fontColor=#000000;fillColor=#FFFFFF;fontStyle=2" vertex="1" parent="1">
                    <mxGeometry x="-1600" y="1520" width="140" height="40" as="geometry"/>
                </mxCell>
                <mxCell id="24" value="Allow User to Sign out" style="rounded=0;whiteSpace=wrap;html=1;labelBackgroundColor=none;strokeColor=#000000;strokeWidth=1;fontColor=#000000;fillColor=#FFFFFF;fontStyle=2" vertex="1" parent="1">
                    <mxGeometry x="-1600" y="1580" width="140" height="40" as="geometry"/>
                </mxCell>
                <mxCell id="25" value="&lt;span style=&quot;color: rgb(0, 0, 0);&quot;&gt;Allow User to Close this Model&lt;/span&gt;" style="rounded=0;whiteSpace=wrap;html=1;labelBackgroundColor=none;strokeColor=#000000;strokeWidth=1;fontColor=#000000;fillColor=#FFFFFF;fontStyle=2" vertex="1" parent="1">
                    <mxGeometry x="-1400" y="1520" width="140" height="40" as="geometry"/>
                </mxCell>
                <mxCell id="26" value="Display High Res Image" style="rounded=0;whiteSpace=wrap;html=1;labelBackgroundColor=none;strokeColor=#000000;strokeWidth=1;fontColor=#000000;fillColor=#FFFFFF;fontStyle=2" vertex="1" parent="1">
                    <mxGeometry x="-1400" y="1460" width="140" height="40" as="geometry"/>
                </mxCell>
                <mxCell id="27" value="Allow User to Download Image" style="rounded=0;whiteSpace=wrap;html=1;labelBackgroundColor=none;strokeColor=#000000;strokeWidth=1;fontColor=#000000;fillColor=#FFFFFF;fontStyle=2" vertex="1" parent="1">
                    <mxGeometry x="-1800" y="1580" width="140" height="40" as="geometry"/>
                </mxCell>
                <mxCell id="42" value="Prompt User Sign In with Google" style="rounded=0;whiteSpace=wrap;html=1;labelBackgroundColor=none;strokeColor=#000000;strokeWidth=1;fontColor=#000000;fillColor=#FFFFFF;fontStyle=2" vertex="1" parent="1">
                    <mxGeometry x="-2200" y="1520" width="140" height="40" as="geometry"/>
                </mxCell>
                <mxCell id="49" value="Allow Admin to Generate Image Download Link" style="rounded=0;whiteSpace=wrap;html=1;labelBackgroundColor=none;strokeColor=#000000;strokeWidth=1;fontColor=#000000;fillColor=#FFFFFF;fontStyle=2" vertex="1" parent="1">
                    <mxGeometry x="-2000" y="1520" width="140" height="40" as="geometry"/>
                </mxCell>
            </root>
        </mxGraphModel>
    </diagram>
</mxfile>